<?xml version="1.0" encoding="UTF-8" standalone="no"?>
<svg
   version="1.0"
   width="1254pt"
   height="1254pt"
   viewBox="0 0 1254 1254"
   preserveAspectRatio="xMidYMid"
   id="svg168"
   xmlns="http://www.w3.org/2000/svg"
   xmlns:svg="http://www.w3.org/2000/svg">
  <defs
     id="defs172" />
  <g
     transform="matrix(0.1,0,0,-0.1,0,1254)"
     fill="#000000"
     stroke="none"
     id="g166">
    <rect
       style="fill:#ffffff;fill-opacity:1;stroke:none;stroke-width:99.6945;stroke-linecap:round;stroke-linejoin:bevel;stroke-miterlimit:0;paint-order:markers stroke fill"
       id="rect2366"
       width="12540.001"
       height="12540"
       x="0"
       y="-12540"
       transform="scale(0.99999998,-0.99999998)"
       ry="1931.6003" />
    <path
       d="m 4422,10849 c -163,-35 -206,-47 -214,-62 -7,-15 -6,-23 6,-35 14,-14 31,-14 188,2 95,10 256,29 358,41 102,13 102.2501,-59.219 104.2501,-61.219 3,-3 -24.2501,-85.781 -144.2501,-253.781 -145,-202 -163,-232 -153,-249 26,-42 46,-26 220,176 573.7269,533.962 148.0069,539.973 -365,442 z"
       id="path132" />
    <path
       d="m 6985.4604,10517.856 c -67.5103,-51.442 -105.8738,-99.974 -132.1809,-166.863 -19.389,-49.391 -24.0679,-97.016 -14.3565,-144.481 10.3914,-48.561 52.5916,-110.167 97.9559,-140.803 89.7292,-61.782 226.2226,-72.652 351.65,-28.571 151.948,53.344 263.9785,180.529 272.5083,309.998 3.6859,52.406 -4.677,87.092 -31.5967,131.512 -27.8722,44.892 -48.6901,63.573 -102.4541,91.825 -103.2656,53.883 -240.4548,49.962 -366.3515,-9.276 -30.4306,-14.633 -58.2283,-30.325 -75.1745,-43.341 z"
       id="path134"
       style="fill:#cf3224;fill-opacity:1;stroke-width:0.490285" />
    <path
       d="m 9799,10810 c -116,-35 -169,-181 -103,-287 55,-89 162,-118 258,-69 l 48,24 56,-33 c 201,-118 453,-310 628,-477 280,-270 494,-564 669,-923 174,-354 273,-700 327,-1135 19,-158 17,-572 -5,-748 -65,-525 -238,-1012 -530,-1497 -175,-289 -420,-620 -645,-870 -121,-133 -360,-380 -426,-440 l -74,-66 -54,30 c -71,39 -124,47 -193,26 -170,-49 -238,-257 -130,-399 61,-80 198,-112 296,-69 116,52 179,194 138,313 l -12,32 195,197 c 301,304 459,484 661,756 491,660 747,1253 842,1950 22,162 31,536 16,705 -74,851 -426,1606 -1012,2175 -161,156 -305,271 -509,406 -91,59 -173,114 -183,121 -15,11 -16,18 -6,52 14,50 -4,126 -39,168 -48,57 -138,81 -213,58 z"
       id="path136" />
    <path
       d="M 7455.513,1382.4057 C 8090.1977,910.02108 8867.9584,750.24666 9672.5445,924.61348 10164.657,1031.6169 10683.68,1306.253 10984.797,1619.4847 c 263.15,273.1241 440.099,583.5898 532.348,932.7188 98.933,376.3382 88.776,741.8705 -30.146,1168.8457 -52.645,186.8406 -73.064,244.8153 -86.695,242.1358 -5.735,-1.0539 -15.062,-25.2618 -21.834,-53.8824 -35.502,-157.8783 -143.669,-445.0665 -241.042,-640.1216 -294.458,-588.5601 -585.13,-1159.3761 -1161.4496,-1488.4835 -776.9718,-443.2283 -1847.1457,-495.48 -2555.2295,-298.3144 -48.773,13.0074 -90.6678,22.7452 -94.4197,19.4401 -9.7549,-8.5931 35.8195,-49.7389 129.1838,-119.4175 z"
       id="path138"
       style="fill:#fec602;fill-opacity:0.984314" />
    <path
       d="m 3180,9947 c -54,-27 -65,-69 -114,-437 -49,-363 -70,-513 -160,-1145 -227,-1593 -258,-1821 -250,-1855 6,-22 21,-42 43,-57 31,-21 45,-23 173,-23 158,0 196,10 227,61 23,38 21,19 61,534 62,797 157,1917 167,1970 18,92 24,82 347,-562 167,-334 315,-618 329,-631 37,-35 85,-38 126,-10 27,18 58,68 144,233 384,735 620,1158 649,1163 9,2 19,-5 22,-15 3,-10 22,-178 41,-373 85,-852 232,-2176 245,-2200 6,-10 25,-29 42,-42 31,-22 41,-23 198,-23 117,0 174,4 197,14 38,16 73,67 73,106 0,16 -42,247 -94,514 -109,561 -154,792 -195,1016 -16,88 -54,288 -85,445 -30,157 -66,346 -80,420 -117,636 -116,632 -154,672 -49,52 -125,42 -175,-23 -45,-60 -359,-598 -681,-1166 -108,-191 -121,-207 -142,-178 -15,20 -288,550 -614,1187 -195,383 -219,418 -283,418 -18,0 -43,-6 -57,-13 z"
       id="path140" />
    <path
       d="m 8930,9913 c -390,-28 -743,-238 -885,-528 -59,-119 -75,-186 -75,-315 0,-89 4,-117 29,-187 40,-116 73,-166 170,-264 130,-130 262,-210 616,-369 365,-165 529,-263 665,-401 143,-145 199,-262 207,-440 4,-62 1,-134 -6,-174 -69,-394 -472,-728 -965,-801 -81,-12 -150,-15 -256,-11 -208,7 -314,34 -494,122 -88,44 -96,46 -122,33 -42,-19 -53,-61 -28,-96 80,-107 334,-221 574,-257 122,-19 368,-19 492,0 531,80 948,352 1128,737 122,261 125,550 8,783 -46,90 -84,142 -167,228 -129,134 -262,220 -631,409 -251,129 -381,203 -484,277 -338,241 -388,577 -126,841 120,121 303,196 505,207 168,9 312,-25 443,-105 187,-113 294,-277 321,-490 10,-80 22,-102 57,-102 53,0 69,46 61,169 -8,108 -27,173 -84,283 -130,253 -396,415 -738,448 -98,9 -125,10 -215,3 z"
       id="path142" />
    <path
       d="m 7235,8866 c -32,-32 -33,-47 -39,-366 -8,-442 -50,-667 -164,-885 -45,-84 -138,-182 -207,-216 -41,-20 -65,-24 -135,-24 -74,0 -91,3 -131,27 -127,75 -206,227 -255,493 -26,145 -30,502 -8,705 22,203 21,226 -7,256 -52,56 -122,12 -158,-99 -71,-219 -121,-558 -121,-819 1,-506 163,-821 469,-912 70,-21 202,-21 272,0 141,41 259,131 368,278 35,48 69,85 75,83 11,-4 22,-32 76,-203 47,-152 105,-208 178,-170 56,29 59,53 28,300 -40,329 -68,723 -81,1151 -10,340 -13,365 -45,397 -36,36 -81,37 -115,4 z"
       id="path144" />
    <path
       d="m 8505,7756 c -167,-33 -322,-113 -435,-227 -131,-131 -192,-262 -193,-414 0,-108 21,-175 84,-265 98,-140 279,-219 500,-220 122,0 224,25 349,86 80,39 109,61 181,133 93,94 145,182 174,296 51,199 -29,413 -197,528 -117,80 -304,114 -463,83 z"
       id="path146"
       style="fill:#1a3c94;fill-opacity:0.988235" />
    <path
       d="m 8518.6706,7592.1841 c -110.52,-23.3002 -213.0984,-79.7853 -287.8814,-160.2767 -86.6953,-92.4945 -127.0649,-184.989 -127.7267,-292.3109 0,-76.255 13.8977,-123.5613 55.5909,-187.1071 64.856,-98.8491 184.6412,-154.6282 330.8981,-155.3343 80.7392,0 148.2424,17.6516 230.9669,60.7216 52.9437,27.5365 72.1358,43.0699 119.7852,93.9066 61.547,66.3701 95.9604,128.5038 115.1525,208.9952 33.7516,140.5069 -19.1921,291.6048 -130.3738,372.8022 -77.4302,56.4852 -201.1861,80.4914 -306.4117,58.6034 z"
       id="path146-0"
       style="fill:#ffffff;fill-opacity:0.988235;stroke-width:0.683572" />
    <path
       d="m 6295,6336 c -73,-32 -115,-100 -115,-185 0,-87 37,-146 115,-182 162,-75 341,106 262,266 -17,35 -71,86 -106,101 -42,17 -116,18 -156,0 z"
       id="path148" />
    <path
       d="m 5382,5894 c -50,-26 -79,-76 -122,-214 -57,-183 -312,-1004 -382,-1230 -238,-771 -384,-1220 -415,-1272 -10,-17 -22,-31 -28,-31 -24,0 -36,37 -365,1118 -241,791 -407,1299 -439,1344 -40,55 -68,61 -296,61 -220,0 -246,-5 -279,-52 -33,-46 -21,-90 65,-245 112,-203 303,-587 400,-804 224,-505 432,-1103 714,-2054 26,-88 56,-176 66,-196 32,-65 106,-75 154,-23 77,83 441,1201 779,2394 238,842 285,1008 296,1052 28,109 -58,197 -148,152 z"
       id="path150" />
    <path
       d="m 7114,5676 c -108,-47 -93,-159 30,-220 68,-33 98,-36 666,-60 300,-13 336,-17 348,-33 14,-20 14,-27 -23,-758 -73,-1416 -89,-1830 -75,-1864 25,-62 55,-71 230,-71 137,0 159,2 188,20 59,36 58,22 33,604 -33,770 -40,1065 -41,1587 0,357 3,469 13,482 13,18 31,19 462,37 352,15 743,39 801,51 62,12 94,39 94,79 0,41 -30,67 -82,74 -24,3 -281,13 -573,21 -291,9 -827,27 -1190,40 -756,29 -838,29 -881,11 z"
       id="path152" />
    <path
       d="m 1700,5575 c -85,-38 -134,-117 -135,-215 0,-52 5,-74 26,-111 l 26,-45 -24,-35 c -74,-108 -164,-326 -197,-479 -89,-413 21,-846 276,-1086 129,-122 296,-202 486,-234 39,-6 72,-15 72,-18 0,-4 -25,-25 -56,-46 -135,-98 -275,-269 -349,-428 -65,-141 -80,-214 -80,-388 0,-183 17,-257 92,-404 83,-163 262,-318 440,-383 273,-99 576,-75 822,64 391,222 576,694 439,1123 -46,145 -139,294 -241,386 -221,200 -470,258 -812,190 -119,-24 -156,-28 -250,-24 -345,16 -624,241 -738,593 -44,138 -52,191 -52,370 1,181 7,227 56,390 31,102 137,333 164,355 11,9 22,9 51,0 85,-28 200,14 252,92 22,34 28,55 30,117 3,70 1,80 -27,123 -44,68 -99,101 -175,105 -40,2 -73,-2 -96,-12 z M 2911,3386 c 122,-26 243,-93 348,-191 91,-86 157,-196 207,-345 26,-78 28,-98 28,-240 1,-168 -10,-227 -61,-344 -83,-189 -242,-346 -426,-419 -206,-82 -456,-74 -647,23 -325,164 -482,546 -375,915 88,304 325,537 608,599 82,18 236,19 318,2 z"
       id="path154" />
    <path
       d="m 2605,3016 c -145,-47 -252,-158 -290,-300 -27,-99 -17,-222 23,-307 158,-331 628,-315 784,26 19,43 23,67 23,165 0,109 -2,119 -32,182 -44,94 -109,160 -202,206 -69,34 -83,37 -170,39 -58,2 -112,-3 -136,-11 z"
       id="path156"
       style="fill:#cf3224;fill-opacity:1" />
    <path
       d="m 6259,5402 c -78,-26 -143,-76 -188,-144 -121,-179 -56,-420 138,-516 49,-24 68,-27 151,-27 83,0 102,3 151,28 67,32 152,118 182,184 33,73 31,208 -4,284 -58,124 -165,197 -300,205 -55,3 -88,-1 -130,-14 z"
       id="path158"
       style="fill:#cf3224;fill-opacity:1" />
    <path
       d="m 6320,4503 c -23,-9 -51,-35 -65,-63 -7,-14 -23,-128 -35,-255 -11,-127 -38,-408 -60,-625 -21,-217 -46,-486 -56,-598 -17,-201 -17,-203 3,-230 37,-50 76,-62 208,-62 142,0 187,10 215,49 25,36 26,85 5,371 -15,220 -48,773 -65,1115 -13,235 -21,268 -76,291 -35,15 -49,16 -74,7 z"
       id="path160" />
    <path
       d="m 9503.043,2807.4089 c -98,-24 -166,-79.9999 -210,-169.9999 -50,-106 -50,-178 0,-280 62,-124 126,-162 280,-162 154,0 218,38 279.9999,162 50,102 50,174 -2,280 -63.9999,132 -209.9999,203.9999 -347.9999,169.9999 z"
       id="path164"
       style="fill:#fec602;fill-opacity:0.984314;stroke-width:2" />
    <path
       d="m 7294.1189,11678.385 c -8.6074,-12.423 -17.0307,-38.979 -19.193,-63.656 -1.0811,-12.338 7.6508,-102.855 19.8697,-202.281 12.6467,-99.183 39.4902,-319.28 59.7284,-489.528 20.6657,-170.004 46.7252,-380.497 57.7502,-468.038 20.1906,-156.875 20.4638,-158.394 32.7066,-174.058 22.6561,-29.015 40.9758,-28.667 97.4318,3.377 26.7112,50.643 27.8757,171.699 -8.8804,335.697 -36.4728,163.545 -80.5482,612.665 -134.5446,868.438 -37.6667,175.43 -45.5969,198.566 -72.2626,202.693 -17.0189,2.903 -23.1433,0.264 -32.6061,-12.644 z"
       id="path160-2"
       style="fill:#cf3224;fill-opacity:1;stroke-width:0.59849" />
    <path
       d="m 6633.4123,2111.5321 c -73,-32 -115,-100 -115,-185 0,-87 37,-146 115,-182 162,-75 341,106 262,266 -17,35 -71,86 -106,101 -42,17 -116,18 -156,0 z"
       id="path148-4" />
    <path
       style="fill:#1a3c94;fill-opacity:0.988235;stroke:none;stroke-width:99.6945;stroke-linecap:round;stroke-linejoin:bevel;stroke-miterlimit:0;paint-order:markers stroke fill"
       id="path2244"
       d="m 1046.7424,8148.7824 c 194.3374,-13.3133 389.097,-2.3701 583.0672,11.0904 87.6311,2.8872 174.0435,18.7259 261.2683,25.8939 56.2918,4.626 127.8576,7.8607 184.001,10.75 110.8261,6.6035 221.9968,5.3764 332.6474,14.6462 71.5296,9.433 142.2323,-4.1533 212.4582,-16.433 98.7263,-17.2379 123.1043,122.3821 24.3781,139.62 v 0 c -82.1838,14.3296 -165.0867,28.6098 -248.7242,18.0459 -109.1062,-9.2309 -218.7823,-7.5272 -328.0554,-14.3347 -62.0603,-3.2038 -129.4935,-6.1962 -191.4618,-11.3324 -85.577,-7.0929 -170.3519,-22.5863 -256.3276,-25.464 -188.3471,-13.0815 -377.467,-23.9584 -566.1735,-10.9269 -100.09476,5.0048 -107.17254,-136.5507 -7.0777,-141.5554 z" />
    <path
       style="fill:#1a3c94;fill-opacity:0.988235;stroke:none;stroke-width:99.6945;stroke-linecap:round;stroke-linejoin:bevel;stroke-miterlimit:0;paint-order:markers stroke fill"
       id="path2246"
       d="m 939.77814,8656.2065 c 186.09546,-15.497 373.14206,-8.1683 559.34576,0.9651 178.2354,13.7544 356.2702,37.1992 531.9947,70.3576 63.7324,12.026 159.0204,34.5535 222.3364,49.0929 149.2268,33.732 297.9367,75.6872 450.7373,89.7327 13.0981,0.022 26.1963,0.052 39.2943,0.076 100.2162,0.8666 98.9907,142.5935 -1.2255,141.727 v 0 c -17.1661,-0.2363 -34.3322,-0.4725 -51.4983,-0.7088 -158.904,-15.558 -313.9091,-56.4336 -469.0398,-92.6929 -56.3037,-12.939 -156.8848,-36.6467 -214.0156,-47.4419 -170.2976,-32.1788 -342.8319,-55.0561 -515.5558,-68.5823 -183.9197,-9.0969 -368.5474,-15.9427 -552.37346,-0.7936 -100.21987,0 -100.21987,-141.7323 0,-141.7323 z" />
    <path
       style="fill:#1a3c94;fill-opacity:0.988235;stroke:none;stroke-width:99.6945;stroke-linecap:round;stroke-linejoin:bevel;stroke-miterlimit:0;paint-order:markers stroke fill"
       id="path2248"
       d="m 2537.7435,7772.4724 c -60.0027,29.757 -122.3342,57.1247 -188.6416,69.3432 -45.5886,8.4007 -73.8124,8.0081 -119.1279,9.7748 -114.3106,-0.068 -222.791,-40.4757 -332.1316,-68.9562 -75.3279,-17.3017 -143.8981,-53.4554 -216.0526,-79.571 -33.1215,-11.988 -72.4207,-23.0374 -106.2267,-33.0088 -86.3768,-26.4133 -176.621,-31.5594 -266.2432,-35.6052 -64.4306,-1.8879 -129.1226,3.1566 -193.1837,9.9756 -60.3374,10.6566 -120.747,20.8019 -181.0644,31.5978 -6.96578,1.2518 -13.93155,2.5035 -20.89725,3.7552 -98.64,17.7251 -123.70705,-121.7728 -25.0671,-139.498 v 0 c 6.99772,-1.2574 13.99545,-2.5149 20.99317,-3.7723 63.68535,-11.3987 127.43878,-22.3019 191.23348,-33.0399 71.1355,-7.3822 142.8879,-13.0307 214.4252,-10.6043 101.0485,4.6275 202.647,11.4491 299.9827,41.2731 42.9689,12.7279 76.3096,21.9456 118.8012,37.3778 66.5344,24.1643 129.6623,57.7182 199.0597,73.9733 96.0286,25.064 191.371,61.0521 291.3411,64.4599 28.3369,-0.8852 61.9113,-0.9671 90.0179,-5.6909 54.5742,-9.172 105.5528,-32.2089 154.9129,-56.2102 87.9825,-47.9905 155.8513,76.4356 67.8687,124.4261 z" />
    <path
       style="fill:#1a3c94;fill-opacity:0.988235;stroke:none;stroke-width:99.6945;stroke-linecap:round;stroke-linejoin:bevel;stroke-miterlimit:0;paint-order:markers stroke fill"
       id="path2250"
       d="m 1232.8438,9757.9356 c 105.6544,-16.9728 212.6644,-27.4713 315.592,-58.1895 27.8144,-8.301 54.9804,-18.6373 82.4706,-27.956 84.6736,-35.4376 165.3248,-79.7851 244.479,-126.0467 11.0181,-6.4396 121.7106,-74.3326 132.8321,-80.266 28.7981,-15.3638 58.7958,-28.3647 88.1937,-42.547 90.5392,-38.3249 183.215,-72.5018 279.3363,-94.0839 82.5986,-18.5459 166.4663,-26.4528 250.5903,-33.695 99.856,-8.5321 111.9223,132.6856 12.0663,141.2177 v 0 c -75.8439,6.4277 -151.767,13.0429 -226.2873,29.4639 -87.5943,19.3018 -171.9672,50.4201 -254.5386,84.9513 -25.4482,12.0567 -51.4928,22.9276 -76.3446,36.1701 -7.8888,4.2037 -130.8399,79.0992 -136.2024,82.2291 -86.8956,50.7177 -175.5522,99.1004 -268.9366,136.9422 -30.9212,10.3299 -61.4851,21.7986 -92.7637,30.9898 -108.3322,31.8332 -220.6014,43.8361 -331.7553,61.3089 -99.3407,13.2455 -118.0725,-127.2436 -18.7318,-140.4889 z" />
    <path
       style="fill:#1a3c94;fill-opacity:0.988235;stroke:none;stroke-width:99.6945;stroke-linecap:round;stroke-linejoin:bevel;stroke-miterlimit:0;paint-order:markers stroke fill"
       id="path2252"
       d="m 2407.7768,7199.4175 c -102.5641,-21.9138 -207.93,-14.2717 -311.8041,-10.0817 -92.9511,3.569 -186.0972,12.8306 -279.2181,9.383 -63.0223,-2.3334 -102.041,-7.5475 -164.9631,-14.1759 -184.9142,-23.3784 -368.3954,-56.6411 -546.9067,-110.5225 -49.1012,-15.612 -97.4465,-33.401 -145.64564,-51.5581 -93.77777,-35.3517 -43.78296,-167.9735 49.99494,-132.6218 v 0 c 45.2561,17.073 90.6515,33.7935 136.7367,48.5334 169.878,51.6498 344.7726,82.5433 520.7544,105.2258 53.8607,5.742 96.666,11.2717 150.5344,13.3877 91.0393,3.5759 182.1243,-5.9969 273.0022,-9.2687 114.677,-4.6233 230.7885,-11.7751 343.9723,12.4578 98.4582,18.7081 72.001,157.9491 -26.4573,139.241 z" />
    <path
       d="m 5118.567,1640.0275 c 24.2421,-164.9434 33.3983,-208.6374 47.8417,-217.6033 14.509,-7.9679 22.5573,-7.4944 35.318,3.6934 14.8874,13.0523 16.0016,30.0157 10.3253,187.7269 -3.7524,95.4511 -12.1602,257.3502 -17.4495,359.9174 -6.2873,102.6326 65.7928,98.1491 67.9196,100.0138 3.1902,2.7969 84.0073,-29.8198 243.7817,-160.5722 192.0627,-157.9267 220.8186,-177.8541 238.4375,-168.9897 43.6136,23.1915 28.9588,44.1971 -161.2035,231.0616 -495.2135,607.4878 -529.1121,183.0769 -464.9708,-335.2479 z"
       id="path132-0" />
  </g>
</svg>
